<svg width="78" height="24" viewBox="0 0 78 24" fill="none" xmlns="http://www.w3.org/2000/svg">
<g clip-path="url(#clip0_548_3172)">
<path d="M22.472 17.0326C22.3622 16.7305 22.234 16.4382 22.112 16.1674C21.9242 15.7508 21.7275 15.3335 21.5373 14.93L21.5222 14.898C19.8254 11.2942 18.0042 7.64108 16.1092 4.04026L16.0288 3.88737C15.8355 3.51967 15.6356 3.13947 15.4305 2.76589C15.1874 2.29312 14.8923 1.8477 14.5505 1.43751C14.1658 0.987382 13.6849 0.625367 13.1417 0.37699C12.5985 0.128615 12.0063 -7.37969e-05 11.4067 3.17487e-08C10.8072 7.38604e-05 10.215 0.128908 9.67185 0.377418C9.12875 0.625928 8.64791 0.988065 8.26333 1.43828C7.92197 1.84857 7.62705 2.2939 7.38379 2.76644C7.17692 3.14336 6.97523 3.52708 6.78019 3.89818L6.70549 4.04022C4.81047 7.6413 2.98926 11.2944 1.29247 14.8979L1.26774 14.9503C1.08079 15.3472 0.887495 15.7576 0.70282 16.1672C0.580786 16.4378 0.452713 16.7299 0.34286 17.0327C0.0282225 17.8578 -0.0720383 18.7465 0.0510898 19.6189C0.181665 20.5005 0.545241 21.3335 1.10581 22.0353C1.66638 22.7371 2.4045 23.2833 3.24705 23.6199C3.88344 23.8724 4.5639 24.0015 5.25059 24C5.4663 23.9999 5.68183 23.9876 5.89609 23.9632C6.76459 23.8546 7.60222 23.5774 8.35984 23.1479C9.35365 22.6003 10.3352 21.7978 11.4073 20.6511C12.4795 21.7978 13.461 22.6003 14.4549 23.1479C15.2124 23.5775 16.0501 23.8546 16.9186 23.9632C17.1329 23.9876 17.3484 23.9999 17.5641 24C18.2508 24.0015 18.9311 23.8724 19.5675 23.6199C20.4101 23.2833 21.1482 22.7371 21.7089 22.0353C22.2695 21.3335 22.6331 20.5006 22.7637 19.6189C22.8867 18.7464 22.7864 17.8577 22.472 17.0326ZM11.4073 18.2828C10.08 16.6327 9.22832 15.1003 8.92947 13.8158C8.80704 13.3344 8.77814 12.8348 8.84428 12.343C8.89651 11.9825 9.03156 11.6382 9.23925 11.3361C9.49482 11.0111 9.82326 10.7478 10.1992 10.5667C10.5751 10.3856 10.9885 10.2914 11.4075 10.2914C11.8266 10.2915 12.2399 10.3857 12.6158 10.5669C12.9917 10.748 13.3201 11.0113 13.5757 11.3363C13.7834 11.6386 13.9184 11.9828 13.9706 12.3434C14.0366 12.8355 14.0077 13.3352 13.885 13.8167C13.5858 15.1012 12.7343 16.6331 11.4073 18.2828ZM21.2134 19.4017C21.1221 20.0181 20.8678 20.6005 20.4759 21.0912C20.0839 21.5819 19.5678 21.9639 18.9787 22.1993C18.383 22.4333 17.7365 22.5163 17.0994 22.4404C16.437 22.3567 15.7987 22.1429 15.2229 21.8118C14.3383 21.3244 13.4428 20.5761 12.4352 19.4784C14.0393 17.5385 15.041 15.7504 15.4119 14.1578C15.5788 13.488 15.615 12.7934 15.5186 12.1106C15.4311 11.5224 15.2084 10.9613 14.8673 10.4695C14.4678 9.93892 13.9466 9.5076 13.3456 9.21037C12.7447 8.91315 12.0808 8.75828 11.4075 8.75828C10.7343 8.75828 10.0703 8.91308 9.46935 9.21023C8.86837 9.50737 8.34715 9.93863 7.94759 10.4692C7.60658 10.9608 7.38393 11.5218 7.29636 12.1099C7.19989 12.7924 7.23588 13.4867 7.40244 14.1562C7.77308 15.7495 8.77485 17.538 10.3795 19.4785C9.37185 20.5761 8.47638 21.3244 7.59176 21.8119C7.01593 22.1429 6.3777 22.3568 5.71537 22.4404C5.07814 22.5163 4.43166 22.4333 3.83592 22.1993C3.2468 21.9639 2.7307 21.5819 2.33876 21.0913C1.94683 20.6005 1.69264 20.0181 1.60138 19.4017C1.5136 18.7751 1.5883 18.1369 1.81861 17.5459C1.90615 17.3046 2.0086 17.0677 2.13552 16.7864C2.31507 16.3883 2.50561 15.9836 2.68992 15.5924L2.71467 15.5398C4.40198 11.9564 6.21309 8.32365 8.09778 4.7422L8.17279 4.59962C8.36466 4.23451 8.5631 3.857 8.7633 3.49223C8.95478 3.11626 9.18656 2.76128 9.45475 2.4333C9.69234 2.15177 9.99058 1.92511 10.328 1.76951C10.6656 1.61389 11.034 1.5332 11.407 1.53316C11.7801 1.53313 12.1486 1.61378 12.486 1.76933C12.8236 1.92488 13.1218 2.1515 13.3595 2.43299C13.6278 2.76073 13.8597 3.11558 14.051 3.49153C14.2494 3.85306 14.4461 4.22717 14.6363 4.58893L14.7169 4.74236C16.6015 8.32343 18.4126 11.9561 20.1001 15.5401L20.1153 15.5723C20.3028 15.9702 20.4966 16.3814 20.6792 16.7865C20.8063 17.0683 20.9089 17.3053 20.9962 17.5458C21.2264 18.1368 21.3011 18.775 21.2134 19.4017Z" fill="#FF385C"/>
<path d="M31.8765 18.0902C31.2654 18.0902 30.7033 17.97 30.1899 17.7298C29.6766 17.4896 29.2367 17.1532 28.8456 16.7208C28.4545 16.2884 28.1612 15.7839 27.9412 15.2313C27.7212 14.6547 27.6234 14.0301 27.6234 13.3575C27.6234 12.6848 27.7457 12.0361 27.9656 11.4595C28.1856 10.883 28.5034 10.3785 28.8945 9.92201C29.2856 9.48956 29.75 9.12919 30.2877 8.88896C30.8255 8.64874 31.3877 8.52859 32.0231 8.52859C32.6342 8.52859 33.172 8.64874 33.6608 8.91296C34.1497 9.15326 34.5408 9.51356 34.8585 9.97001L34.9319 8.79289H37.1806V17.8499H34.9319L34.8585 16.5286C34.5408 17.0091 34.1252 17.3934 33.5875 17.6817C33.0986 17.946 32.512 18.0902 31.8765 18.0902ZM32.4632 15.928C32.9031 15.928 33.2942 15.8079 33.6608 15.5916C34.003 15.3514 34.2719 15.0391 34.4919 14.6547C34.6875 14.2704 34.7852 13.8139 34.7852 13.3094C34.7852 12.8049 34.6875 12.3484 34.4919 11.964C34.2964 11.5797 34.003 11.2674 33.6608 11.0271C33.3186 10.7868 32.9031 10.6908 32.4632 10.6908C32.0231 10.6908 31.6321 10.8109 31.2654 11.0271C30.9233 11.2674 30.6544 11.5797 30.4344 11.964C30.2389 12.3484 30.1411 12.8049 30.1411 13.3094C30.1411 13.8139 30.2389 14.2704 30.4344 14.6547C30.6299 15.0391 30.9233 15.3514 31.2654 15.5916C31.6321 15.8079 32.0231 15.928 32.4632 15.928ZM41.0182 6.34241C41.0182 6.60668 40.9693 6.84692 40.847 7.03911C40.7248 7.23131 40.5537 7.39947 40.3337 7.51961C40.1137 7.63969 39.8693 7.68776 39.6249 7.68776C39.3805 7.68776 39.1361 7.63969 38.9161 7.51961C38.696 7.39947 38.525 7.23131 38.4028 7.03911C38.2805 6.82289 38.2316 6.60668 38.2316 6.34241C38.2316 6.07815 38.2805 5.83791 38.4028 5.64572C38.525 5.4295 38.696 5.28536 38.9161 5.16524C39.1361 5.04512 39.3805 4.99707 39.6249 4.99707C39.8693 4.99707 40.1137 5.04512 40.3337 5.16524C40.5537 5.28536 40.7248 5.45353 40.847 5.64572C40.9448 5.83791 41.0182 6.05413 41.0182 6.34241ZM38.4028 17.8259V8.76881H40.847V17.8259H38.4028ZM47.3733 11.1472V11.1712C47.2511 11.1232 47.1044 11.0991 46.9822 11.0751C46.8356 11.0511 46.7133 11.0511 46.5667 11.0511C45.8823 11.0511 45.3689 11.2433 45.0267 11.6517C44.6601 12.0601 44.489 12.6367 44.489 13.3815V17.8259H42.0448V8.76881H44.2935L44.3668 10.1382C44.6113 9.65771 44.9045 9.29734 45.3201 9.03311C45.7112 8.76881 46.1756 8.64874 46.7133 8.64874C46.8844 8.64874 47.0555 8.67274 47.2022 8.69674C47.2755 8.72081 47.3244 8.72081 47.3733 8.74481V11.1472ZM48.351 17.8259V5.04512H50.7953V9.92201C51.1375 9.48956 51.5286 9.15319 52.0175 8.88896C52.5063 8.64874 53.0441 8.50459 53.6551 8.50459C54.2661 8.50459 54.8284 8.62466 55.3416 8.86496C55.855 9.10519 56.2949 9.44149 56.6861 9.87394C57.0771 10.3064 57.3704 10.8109 57.5904 11.3634C57.8104 11.94 57.9081 12.5646 57.9081 13.2373C57.9081 13.91 57.7859 14.5587 57.566 15.1352C57.346 15.7118 57.0283 16.2163 56.6371 16.6728C56.246 17.1052 55.7816 17.4655 55.2439 17.7058C54.7062 17.946 54.1439 18.0661 53.5085 18.0661C52.8974 18.0661 52.3597 17.946 51.8708 17.6817C51.3819 17.4415 50.9908 17.0811 50.6731 16.6247L50.5998 17.8019L48.351 17.8259ZM53.0685 15.928C53.5085 15.928 53.8995 15.8079 54.2661 15.5916C54.6084 15.3514 54.8772 15.0391 55.0972 14.6547C55.2928 14.2704 55.3906 13.8139 55.3906 13.3094C55.3906 12.8049 55.2928 12.3484 55.0972 11.964C54.8772 11.5797 54.6084 11.2674 54.2661 11.0271C53.924 10.7868 53.5085 10.6908 53.0685 10.6908C52.6285 10.6908 52.2375 10.8109 51.8708 11.0271C51.5286 11.2674 51.2597 11.5797 51.0397 11.964C50.8442 12.3484 50.7464 12.8049 50.7464 13.3094C50.7464 13.8139 50.8442 14.2704 51.0397 14.6547C51.2352 15.0391 51.5286 15.3514 51.8708 15.5916C52.2375 15.8079 52.6285 15.928 53.0685 15.928ZM58.837 17.8259V8.76881H61.0857L61.1591 9.94601C61.4279 9.51356 61.7946 9.17726 62.259 8.91296C62.7234 8.64874 63.2612 8.52859 63.8722 8.52859C64.5566 8.52859 65.1432 8.69674 65.6321 9.00911C66.1454 9.32141 66.5365 9.77786 66.8054 10.3545C67.0743 10.931 67.2209 11.6277 67.2209 12.4205V17.8499H64.7766V12.7328C64.7766 12.1082 64.63 11.6037 64.3366 11.2433C64.0434 10.883 63.6522 10.6908 63.139 10.6908C62.7723 10.6908 62.4545 10.7628 62.1612 10.931C61.8923 11.0991 61.6724 11.3154 61.5013 11.6277C61.3302 11.916 61.2569 12.2763 61.2569 12.6367V17.8259H58.837ZM68.443 17.8259V5.04512H70.8873V9.92201C71.2295 9.48956 71.6206 9.15319 72.1095 8.88896C72.5984 8.64874 73.1361 8.50459 73.7472 8.50459C74.3583 8.50459 74.9204 8.62466 75.4337 8.86496C75.947 9.10519 76.3869 9.44149 76.7779 9.87394C77.1695 10.3064 77.4624 10.8109 77.6826 11.3634C77.9028 11.94 77.9999 12.5646 77.9999 13.2373C77.9999 13.91 77.8784 14.5587 77.6581 15.1352C77.4379 15.7118 77.1205 16.2163 76.729 16.6728C76.3381 17.1052 75.8737 17.4655 75.3359 17.7058C74.7982 17.946 74.236 18.0661 73.6005 18.0661C72.9894 18.0661 72.4517 17.946 71.9628 17.6817C71.4739 17.4415 71.0829 17.0811 70.7651 16.6247L70.6918 17.8019L68.443 17.8259ZM73.185 15.928C73.6249 15.928 74.0161 15.8079 74.3827 15.5916C74.7249 15.3514 74.9937 15.0391 75.2137 14.6547C75.4093 14.2704 75.5071 13.8139 75.5071 13.3094C75.5071 12.8049 75.4093 12.3484 75.2137 11.964C75.0182 11.5797 74.7249 11.2674 74.3827 11.0271C74.0404 10.7868 73.6249 10.6908 73.185 10.6908C72.745 10.6908 72.3539 10.8109 71.9873 11.0271C71.6451 11.2674 71.3762 11.5797 71.1562 11.964C70.9362 12.3484 70.8629 12.8049 70.8629 13.3094C70.8629 13.8139 70.9607 14.2704 71.1562 14.6547C71.3517 15.0391 71.6451 15.3514 71.9873 15.5916C72.3539 15.8079 72.7206 15.928 73.185 15.928Z" fill="#FF385C"/>
</g>
<defs>
<clipPath id="clip0_548_3172">
<rect width="78" height="24" fill="white"/>
</clipPath>
</defs>
</svg>
